#define twitter_width 8
#define twitter_height 8
static unsigned char twitter_bits[] = {
   0x10, 0x1c, 0x0e, 0x06, 0x0e, 0xfe, 0x0e, 0x01 };
